<svg xmlns="http://www.w3.org/2000/svg" viewBox="0 0 400 29.95"><defs><style>.cls-1{fill:#ffffef;}</style></defs><g id="Layer_2" data-name="Layer 2"><g id="layer1"><path class="cls-1" d="M399.21,3.36l-.89,1.11V3.36L397.2,2V3.25h-1.57s-1.79.22-1.91,0l-.1-.22-.9.22V2h-1.35V.92l-.89.88s-.79.34-1.12,0-1-.88-1-.88h-.78L386,1.8V.92s-1-.45-1.45,0a4.79,4.79,0,0,1-1.35.78L382,2.6v-1s-.45.89-.78.22l-.34-.66L379.61,2.6h-1v-1l-1.23,1-.53-.46-.11.22-.12.24h-.34a5.91,5.91,0,0,1-.61.18c-.09,0-.23.33-.23.33L375.19,3V3.5s-.39-.44-.39-.33V4a2.4,2.4,0,0,0-.19-.59c0,.12.2.74,0,.53a2.19,2.19,0,0,1-.36-.5s-.11.4-.25.2l-.14-.2s-.19.23-.31.06a2.75,2.75,0,0,1-.22-.44s-.17.44-.36.16a2.22,2.22,0,0,1-.31-.62s-.34.65-.48.51L372,3s-.28.28-.45.06l-.17-.23s-.33.59-.42.31-.08-.73-.22-.51-.28.84-.47.46l-.2-.39s-.23.27-.37.13l-.13-.13s-.45-.17-.57-.07-.61.43-.61.43V2.75s-.09.59-.33.22l-.26-.36s-.17.25-.25.25-.05,0-.07,0,0,.08-.13.08c-.28,0-.75.31-.84,0s-.42-.08-.42-.08c-.25-.28-.33.11-.47,0s-.37.33-.48.11-.11.56-.36.17-.42.47-.56.11-.28.64-.5.11-.26.25-.6-.19-.39.36-.64,0-.17.69-.47.3-.26.47-.54,0-.19.06-.47-.3-.28.55-.62.08-.19.36-.5,0-.06.7-.34.42,0,.8-.25.53-.25.41-.37.3l-.1-.11s.22.87,0,.65-.48.1-.51,0,.08,1.19-.33.57-.54-.1-.67-.5-.21.45-.31,0a7.23,7.23,0,0,1-.48-.64c-.26-.39-.87-.25-.93-.41s-.47.24-.53.16-.17.65-.48.25-.41.23-.58,0-.26.2-.48,0-.25.87-.56,0-.56,0-.69-.27-.23,1-.57.27-.53-.25-.78-.5-.5.37-.73.09-.25.66-.53.41-.22.5-.48.17-.25.5-.53.11-.36.12-.5-.28-.22.81-.37,0-.19-.39-.33-.67-.34.42-.48.09-.33.19-.45,0-.22.22-.33.16,0,.12,0,.18a2.15,2.15,0,0,1-.09-.23c-.23-.59,0-.25-.23-.59s-.22.06-.36-.19-.28.31-.51,0-.53-.33-.61-.41-.42.86-.73.41-.42.19-.59,0-.11.67-.5.17-.4.19-.59-.17-.14.36-.42,0-.45.09-.64-.25-.2,0-.45-.3-.28.41-.59,0-.42,0-.67-.22-.23.47-.64.08-.51.19-.62-.08-.22-.69-.28-.78-.23.33-.39,0-.08.06-.42-.14-.65.7-.9.28-.25,0-.5-.19-.11.55-.51.19-.53.48-.84,0-.27.44-.5,0c0,0-.14-.55-.28-.31s-.25.48-.33.06-.34.42-.48-.22-.11.3-.45-.45-.61,0-.73-.25.06,1-.61-.09S329.17.36,329,.06s-.2.74-.51.36-.47.52-.58.25-.42.83-.73.47-.45,1-.81.66-.34.12-.64-.33-.34.11-.59,0-.25.2-.54.2-.5.39-.72.36-.31.8-.45.61-.56.53-.73.28-.64,0-.76,0-.08.67-.39.22a1,1,0,0,0-.81-.41s-.33.74-.48.44-.22.47-.5.08-.45.31-.7.06-.45.75-.62,0-.53.94-.67.52-.53.17-.72,0-.17.45-.48.26-.28.55-.53.41.11.87-.26.48-.47.44-.61,0-.64-.53-.73-.22.25.76-.08.31-.42,0-.53,0-.4.46-.59.22-.37,0-.37-.45-.36.11-.45-.11-.19.17-.53,0-.72.27-.89.11,0,.3-.36-.06-.43.09-.6-.28-.41.11-.67,0-.22.64-.55.23-.29.41-.65-.23-.48-.25-.48,0,.22.43.22.44-.06,0-.22-.19c-.5-.44-.72-.08-.72-.08s-.09.31-.22,0-.45.2-.51,0-.25.11-.42-.23-.34.34-.65,0a.38.38,0,0,0-.53-.07.57.57,0,0,0-.11-.12c-.3-.31-.64.19-.67.19h0V3.58s-.23-.47-.4-.22-.23.32-.35.07-.34.51-.59-.15-.18-.09-.52-.54-.89-.08-1,0,0,.62-.25.32-.23.5-.52,0-.49-.09-.77-.28-.35.09-.61-.25.26.08-.25-.34-.75.37-1-.19-.71.16-.71.3.11.61-.21.2-.54.43-.63.18-.08.44-.45,0-.43.48-.72.2-.6,1.28-1,.7-.37,0-.43.13a.4.4,0,0,1-.61,0c-.17-.21-.43-.07-.6-.13s-.35.06-.66,0-.51.06-.71,0-.35,0-.58,0-.43.62-.69.27-.34-.57-.54-.27-.18.69-.43.38.05.18-.49-.13-.6.08-.75,0-.57.24-.57.24.09.78,0,.94h-.12a.76.76,0,0,1-.1-.12c-.43-.61-.58-.15-.7-.39s-.17.31-.4.11-.37.5-.63.28-.08-.36-.57.16l-.05,0-10.68.34c-.12-.06-.23-.07-.3,0l-1,0,0,0c-.12-.11-.26,0-.37,0h-.12a.17.17,0,0,1-.08-.07s-.46-.5-.6-.19c-.06.11-.1.21-.15.29h-.26c-.15-.22-.43.07-.59-.18s-.41.08-.64-.11-.27.17-.34.35l-.91,0c-.16-.13-.26,0-.5-.12s-.37.28-.71-.22-.81.16-1-.17-.55-.89-.77-.13a1.63,1.63,0,0,0-.06.74h-.17a1.19,1.19,0,0,0-1.12-.55c-.17-.06-.31.41-.52.19s-.6.42-.8.14-.6.28-.75-.06-.23.31-.45.12-.69-.31-.78,0a.72.72,0,0,1-.1.25l-.37,0a1.11,1.11,0,0,1-.11-.16c-.25-.47-.88-.47-1-.58s-.2.06-.43-.08-.47.14-.63,0-.43.14-.55.06-.09.22-.31.11-.18.5-.47.16-.23,0-.68-.36-.61.12-.81-.08-.14.31-.51.06-.24.33-.67,0-.45,0-.8-.13-.26.33-.45.16-.47.44-.67.17-.43-.39-.43-.09-.11.5-.31.06-.2-.2-.57-.53-.43.17-.61-.06-.28,0-.46-.11-.51-.61-.51-.11.26,1.23-.23.47-.52,0-.8-.53-.67-.6-.67-.34,0,.65-.22.26-.4-.27-.6-.26-.58-.46-.58.29,0,.86-.28.5-.43,0-.61,0-.2.72-.49.33.18-.28-.28-.4-.29.54-.63.17-.29,0-.61-.17-.37.48-.65.17,0,.64-.58.14-.89-.19-1,0,.37.7-.12.2-.54,0-.86-.2-.48.73-.74.09-.29-.5-.57,0a1.42,1.42,0,0,0-.12.78l.18.32c-.15.16-.29.35-.35.1-.12-.47-.51-.06-.65-.2s-.19.92-.64.36-.28.14-.59-.1-.14.93-.5.27S235,6,234.91,6.3s-.09.74-.23,0-.44-.29-.58-.55-.36.78-.59.31-.34,1.05-.59.5.17,0-.25-.55-.34.2-.56-.3-.17.66-.34.26-.11.28-.39,0,0,1-.39.56-.22.64-.67.06-.37,0-.76-.38-.33.42-.7,0-.33.24-.33.46,0,.42-.23-.14-.17.14-.56-.29-.31.07-.58-.21.05,1.22-.48.48-.31.25-.84-.27-.09,1.32-.73.43-.92-1.55-1-1.08.5,1.11,0,.47-.61-.11-.9-.28-.47-.58-.55-.11-.09,1-.37.5-.64,0-.81-.25-.36.19-.53,0-.26.09-.42-.08-.34,1-.68.28-.53-.75-.53-.47-.16.31-.19.08-.31-.22-.34-.08a1.26,1.26,0,0,0,.09.31s-.05-.08-.11-.17c-.29-.42-.23.27-.62-.2s-.39.31-.53.11-.14.76-.45.42-.56.18-.7,0-.17.67-.45.2-.34.7-.45-.2-.3.42-.36.2a2.19,2.19,0,0,0-.23-.5s-.16.77-.27.52a4.44,4.44,0,0,1-.2-.5s-.08.52-.25.28-.06-.66-.17-.22.28.86-.11.44-.42-.21-.65-.22-.56.14-.56.42,0,.52-.28,0-.3-1-.44-.47.1,1.3-.14.56-.48-.14-.6-.49-.44,0-.44,0a.22.22,0,0,1-.28,0c-.14-.13-.42,0-.42,0v.43l-.33-.43s-.06.79-.31.4-.45.14-.57.14.12,1.23-.27.59-.34-1-.4-.64.42.94,0,.55-.7,0-.89-.19-.34,1-.67.28-.59-.86-.79-.36.23,1.1-.2.5-.77,0-.77,0L204.7,7s-.31.64-.31.53V7s-.3.72-.45.33-.24.11-.44-.19-.23.86-.45.33-.28.22-.5-.25-.42.3-.45.22-.42-.79-.42-.79l-.22.73-.06.23s-.28.28-.42,0-.11.58-.4-.14-.58.37-.58.37-.31-1.09-.58-.37-.26-.16-.4.14-.42,0-.42,0l-.06-.23-.22-.73s-.39.71-.42.79-.22-.69-.45-.22-.28-.28-.5.25-.26-.64-.45-.33-.31-.2-.44.19-.45-.33-.45-.33v.61c0,.11-.31-.53-.31-.53l-.29.44s-.36-.58-.77,0,0,0-.2-.5-.45-.34-.79.36-.47-.5-.67-.28-.47-.2-.89.19.05-.22,0-.55,0,0-.4.64-.17-.59-.27-.59-.31-.53-.57-.14-.31-.4-.31-.4l-.33.43V6.24s-.28-.13-.42,0a.22.22,0,0,1-.28,0s-.34-.35-.44,0-.34-.27-.6.49,0,0-.14-.56-.19,0-.44.47-.28.23-.28,0-.34-.42-.56-.42-.26-.2-.65.22,0,0-.11-.44,0,0-.17.22-.25-.28-.25-.28a4.44,4.44,0,0,1-.2.5c-.11.25-.27-.52-.27-.52a2.19,2.19,0,0,0-.23.5c-.06.22-.25-1.09-.36-.2s-.17-.28-.45.2-.31-.36-.45-.2-.39-.33-.7,0-.31-.61-.45-.42-.14-.58-.53-.11-.33-.22-.62.2c-.06.09-.09.15-.11.17a1.26,1.26,0,0,0,.09-.31c0-.14-.31-.14-.34.08s-.19.19-.19-.08-.2-.19-.53.47-.51-.44-.68-.28-.25,0-.42.08-.36-.3-.53,0-.53-.25-.81.25-.28,0-.37-.5-.28-.06-.55.11-.37-.36-.9.28,0,0,0-.47-.31.19-1,1.08-.2-.94-.73-.43-.31-.49-.84.27-.2-.76-.48-.48-.19-.22-.58.21-.36-.27-.56.29-.23.36-.23.14,0-.86-.33-.46-.31-.32-.7,0-.31-.2-.76.38-.3-.48-.67-.06-.11-.83-.39-.56-.23-.38-.39,0-.12-.74-.34-.26-.14-.24-.56.3,0,0-.25.55-.37-1-.59-.5-.45-.55-.59-.31-.45-.19-.58.55-.14.31-.23,0-.51-.33-.87.34-.19-.53-.5-.27-.14-.45-.59.1-.5-.5-.64-.36-.53-.27-.65.2c-.06.25-.2.06-.35-.1l.18-.32a1.42,1.42,0,0,0-.12-.78c-.28-.47-.31-.61-.57,0s-.43-.28-.74-.09-.38-.31-.86.2,0,0-.12-.2-.43-.5-1,0-.29-.44-.58-.14-.34-.36-.65-.17-.27-.19-.61.17-.17-.27-.63-.17,0,0-.28.4-.32-.33-.49-.33-.29-.34-.61,0-.28.25-.28-.5-.38-.28-.58-.29-.34-.13-.6.26-.22,0-.22-.26-.38-.21-.67.34-.31-.22-.8.53S151,5,151,4.44s-.35,0-.51.11-.29-.11-.46.11-.24-.28-.61.06-.37.09-.57.53-.31.25-.31-.06-.24-.19-.43.09-.47-.33-.67-.17-.11-.3-.45-.16-.37-.14-.8.13-.29-.3-.67,0-.32-.25-.51-.06-.35-.28-.81.08-.4,0-.68.36-.24-.27-.47-.16-.2-.2-.31-.11-.37-.14-.55-.06-.4-.19-.63,0-.28,0-.43.08-.77.11-1,.58a1.11,1.11,0,0,1-.11.16l-.37,0a.72.72,0,0,1-.1-.25c-.09-.36-.55-.25-.78,0s-.31-.45-.45-.12-.55-.22-.75.06-.6-.36-.8-.14-.35-.25-.52-.19a1.19,1.19,0,0,0-1.12.55H135a1.63,1.63,0,0,0-.06-.74c-.22-.76-.6-.21-.77.13s-.63-.34-1,.17-.43,0-.71.22-.34,0-.5.12l-.91,0c-.07-.18-.16-.5-.34-.35s-.46-.14-.64.11-.44,0-.59.18h-.26c-.05-.08-.09-.18-.15-.29-.14-.31-.6.19-.6.19a.17.17,0,0,1-.08.07h-.12c-.11,0-.25-.14-.37,0l0,0-1,0c-.07-.07-.18-.06-.3,0l-10.68-.34,0,0c-.49-.52-.31-.39-.57-.16s-.4-.48-.63-.28-.29-.37-.4-.11-.27-.22-.7.39a.76.76,0,0,1-.1.12h-.12c-.12-.16,0-.94,0-.94s-.43-.33-.57-.24-.2-.31-.75,0-.23-.19-.49.13-.23-.08-.43-.38-.29-.08-.54.27-.46-.3-.69-.27-.37-.06-.58,0-.4-.06-.71,0-.49-.06-.66,0-.43-.08-.6.13a.4.4,0,0,1-.61,0c-.06-.15,0-.71-.43-.13s-.71-1-1-.7-.35-.64-.72-.2-.37-.24-.45,0-.32-.6-.63-.18-.21-.06-.21-.2-.43-.86-.71-.3-.52-.22-1,.19,0,0-.25.34-.32.05-.61.25-.48-.23-.77.28-.29-.32-.52,0-.11-.23-.25-.32-.7-.44-1,0-.25-.1-.52.54-.48-.09-.59.15-.18.18-.35-.07-.4.22-.4.22v.89h0s-.37-.5-.67-.19a.57.57,0,0,0-.11.12.38.38,0,0,0-.53.07c-.31.34-.48-.33-.65,0s-.36.06-.42.23-.36-.31-.51,0-.22,0-.22,0-.22-.36-.72.08c-.16.15-.22.2-.22.19s.22-.27.22-.44-.12-.63-.48,0-.31-.19-.65.23-.3-.34-.55-.23-.51-.36-.67,0-.23-.08-.6.28-.19-.11-.36.06-.56-.25-.89-.11-.45-.26-.53,0-.45-.39-.45.11-.17.19-.37.45S86.26,5,86.14,5s-.19-.4-.53,0,0,0-.08-.31-.59-.19-.73.22-.25-.41-.61,0,0-.61-.26-.48-.22-.61-.53-.41-.28-.42-.48-.26-.58-.41-.72,0-.51-1.27-.67-.52-.37-.25-.62,0-.42-.44-.7-.06-.36-.38-.5-.08-.48-.44-.48-.44a1,1,0,0,0-.81.41c-.31.45-.28-.25-.39-.22s-.6-.25-.76,0-.59-.47-.73-.28S76.32,2,76.09,2s-.44-.36-.72-.36-.29-.34-.54-.2-.28-.41-.59,0-.27,0-.64.33-.5-1-.81-.66-.62-.75-.73-.47S71.78,0,71.48.42,71.11-.25,71,.06s-1-.48-1.71.57-.5-.16-.61.09-.39-.5-.73.25-.31-.19-.45.45-.39-.2-.48.22-.19.2-.33-.06-.28.31-.28.31c-.23.39-.2-.55-.5,0s-.45-.34-.84,0-.26-.42-.51-.19-.25-.23-.5.19-.56-.47-.9-.28-.25-.22-.42.14-.33-.05-.39,0-.17.5-.28.78-.19-.31-.62.08-.39-.33-.64-.08-.36-.14-.67.22-.34-.36-.59,0-.25,0-.45.3-.36-.11-.64.25-.22-.36-.42,0-.19-.33-.59.17-.34-.36-.5-.17-.28-.45-.59,0-.64-.5-.73-.41-.39.1-.61.41-.37-.25-.51,0-.16-.14-.36.19,0,0-.23.59a2.15,2.15,0,0,1-.09.23c0-.06,0-.2,0-.18s-.22-.33-.33-.16-.31-.36-.45,0-.34-.36-.48-.09-.19-.13-.33.67-.23-.39-.37,0-.22-.11-.5.28-.28-.45-.53-.11-.2-.42-.48-.17-.31-.69-.53-.41-.48-.34-.73-.09-.45-.25-.78.5-.43-.55-.57-.27-.39-.59-.69.27-.34-.19-.56,0-.31-.22-.48,0-.28-.39-.58,0-.43-.33-.48-.25-.48-.33-.53-.16-.67,0-.93.41a7.23,7.23,0,0,1-.48.64c-.1.45-.16-.39-.31,0s-.24-.1-.67.5S41.69,5,41.66,5s-.28-.26-.51,0,0-.65,0-.65l-.1.11c-.12.11-.09-.58-.37-.3s0-.81-.25-.53,0-.8-.34-.42-.17-.44-.5,0-.34-.45-.62-.08-.2-.2-.47.3-.23-.36-.54,0-.22-.66-.47-.3-.31-.45-.64,0-.37-.34-.6.19-.36-.47-.5-.11-.31-.5-.56-.11-.25-.39-.36-.17-.34-.2-.48-.11-.22-.31-.47,0c0,0-.34-.16-.42.08s-.56,0-.84,0c-.1,0-.13,0-.13-.08s0,0-.07,0-.25-.25-.25-.25L31.91,3c-.24.37-.33-.22-.33-.22V3S31.07,2.7,31,2.6s-.57.07-.57.07l-.13.13c-.14.14-.37-.13-.37-.13l-.2.39c-.19.38-.33-.26-.47-.46s-.14.24-.22.51-.42-.31-.42-.31L28.42,3C28.25,3.25,28,3,28,3l-.14.14c-.14.14-.48-.51-.48-.51a2.59,2.59,0,0,1-.31.62c-.19.28-.36-.16-.36-.16a2.75,2.75,0,0,1-.22.44c-.12.17-.31-.06-.31-.06l-.14.2c-.14.2-.25-.2-.25-.2a2.19,2.19,0,0,1-.36.5c-.21.21,0-.41,0-.53A2.4,2.4,0,0,0,25.2,4V3.17c0-.11-.39.33-.39.33V3l-.25.08s-.14-.33-.23-.33a5.91,5.91,0,0,1-.61-.18h-.34l-.12-.24-.11-.22-.53.46-1.23-1v1h-1L19.15,1.14l-.34.66c-.33.67-.78-.22-.78-.22v1L16.8,1.7A4.79,4.79,0,0,1,15.45.92C15,.47,14,.92,14,.92V1.8L12.43.92h-.78s-.67.55-1,.88-1.12,0-1.12,0L8.63.92V2H7.28V3.25L6.38,3l-.1.22c-.12.22-1.91,0-1.91,0H2.8V2L1.68,3.36V4.47L.79,3.36,0,4.47v15s.21.12.33,0l.13-.13s.42.49.46.18-.25-.15,0-.41.42.22.67,0,.55.51.55.51-.39.68,0,.51.46,1.67.67,1,.12.25.33.15.17,1.1.29.81.13,1.42.38.54.29-.71.54-.92.5.09.67,0,.26.17.46,0,.29.29.55,0,.54.5.71,0,.37,0,.66-.12.63.45.8,0,.46-.46.5.16a2.77,2.77,0,0,1-.27,1,2,2,0,0,0,.31-.38c.71-.92.89,0,1-.5s-.17,1.29.29.41,0-.87.46-.87.51.5.71.25.17.5.43.16.12.76.49.34.59.83.89,0,.33,0,.5-.46.21,0,.33-.12.38.16.5,0,.17.46.42,0-.12-.42.25-.5.71.54.79.41a2.35,2.35,0,0,0,.34-.65c.05-.18.17.32.33,0s.18.53.43,0,.37-.1.58-.39.51.39.51.39c.54-.89.45.44.67,0s0,.9.41.32,0,1,.71.12.88.26,1.22-.44.62-.39.75-.48.29.3.41.13.43,0,.59,0,.13.79.42.39.42.78.59.28-.3-.5,0-.88.5,0,.63,0S24,20,24.52,20s.29,1,.51.72-.05.24.37,0,.34.78.67,0,.25-.31.63-.64.38.66.75.21.21.87.54.43.38.36.63,0,.13.48.54,0,.43.53.84,0,.26.32.76-.26.52-.59.56-.32a.24.24,0,0,0,.46,0,3.81,3.81,0,0,1,.5-.6s.32.35.32.52.25,0,.25,0,0,.73.16.44.39.2.39.2.16.88.18.74a4,4,0,0,1,.35-.72c0,.11-.17.76,0,.42s.35-.44.35-.44.15.54.21.26.19-.06.27-.26.23.22.27,0,.22.13.3,0a2.54,2.54,0,0,1,.25-.29s0,.55.15.29a.48.48,0,0,1,.33-.29c.06,0,0,.86.23.44s.19.07.36-.15.14.67.37.3.32,0,.32,0,.1-.36.16-.34,0,.54.17.34.17.27.4,0,.21.39.31.29.27.29.27.29,0,.73.19.34.09.08.28-.22.29-.16.35-.24l.17-.17s.17.31.19.19l0-.13s.29.4.33.27.11-.16.19-.27.29.21.35,0-.24.05.07-.19.36.46.52,0,.19.21.25.07.26.5.38.27.21.85.36.46-.21.14.14-.4.34.08.46-.14.31.18.5-.07.13.44.28.21.14.4.31.1,0,1.11.36.4,0-.42.31-.71.44.17.52-.08.08.15.26-.17.16,0,.31-.23.25-.1.36-.21.24.48.35.36.21.68.38.33.29.07.39-.48,0-.08.11-.54.11.4.25-.08.12.33.25-.09.19.59.34.19,0,.57.2.17.09.77.38.14.15-.43.29-.62.11.4.28.1.08.34.24.11.09.19.34-.15.25.4.44,0,.13.3.34-.08,0,.9.33.36a3.43,3.43,0,0,1,.5-.69c.1-.17.19.37.32.1s.23.11.33-.15.1.19.25-.12.5.14.59-.21.19.83.39.27.45-.5.45-.62.12.25.22,0,.21.14.34,0,.35.2.35.2v-.35s.24.44.24.31v-.31l.35-.11s0-.83.19-.8.1.52.25.16.4.19.48-.16.25-1.28.31-.74.17.59.24.21.08.27.31-.19.27.11.44-.18.25.31.44,0,.46-.57.48-.08-.19,1.12.16.6.18.6.18.6a1.64,1.64,0,0,0,.31-.48c0-.14,0,.5.18.23s.42.21.49.09-.13,1.18,0,.83.25-.09.4-.29.26.25.41,0,.11.79.34.5.55.14.61,0,.2.54.31.29.06.19.23,0,.31.44.48.21.08.28.3.15.29.21.45,0,.21,0,.4-.15.19-.14.27.15.13.6.31.17.49.06.59-.17.17.64.3.31.54.21.69,0C66,20,66,20,66,20l.08-.13c.14-.29.37.08.48-.19s.27.27.37-.08.15,0,.3-.32.22.15.35-.12.21.1.34-.14.37-.42.37-.07,0,.63.17.25.33-.29.35,0,.11.56.23.19.11.63.36.11.33.58.42.06a4.43,4.43,0,0,1,.39-1c.07-.25.21.39.3.23.29-.55.44-.21.37-.13a1.47,1.47,0,0,0,.21-.11.15.15,0,0,0,.05.13c.1.13-.09.3.1.13s.25.19.29.1.24.46.3.29.12,1.22.29.59.4.19.46-.25.12.22.21-.13-.11-.17.08-.35.3,0,.34-.08.12.37.29,0,.23,0,.4-.32.23-.56.36-.12-.11,1,.12.44.44,0,.5-.17.13.65.25.31-.18,1.19.15.48.42-.27.5-.48,0,.23.19,0,.34.27.46,0,.19.4.38-.08.39,0,.41.1,0,.54.19,0,.23,0,.31-.35.24.37.36,0a1,1,0,0,0,0-.59l0,0c.13.21,0,1,.27.43s.23-1,.26-.6a2.32,2.32,0,0,1-.07.56s0,0,.09-.12c.19-.32.25-.17.39-.29s.26.25.36.19,0,.7.19.33.18.31.33-.15.26-.94.34-.48,0,.9.23.5.17.08.46-.12.31-.08.46-.36.48,0,.48.19,0,.4.27.13.17.33.4.14.27,0,.33,0l.34-.08c.15,0,.19.1.33.08s.19-.23.32.3-.13.74.12.52.27.14.48.12.4.06.44.4-.25,1,.19.35.55-.33.63-.37.19.35.41,0,.37.16.45.08.27.42.29.33.21.25.3.05-.24-.11.08-.22.35.28.48.07,0-.59.12-.21,0,.86.36.4.58-.21.58-.21.2.39.34.17,0,.62.27.26.46,0,.46,0,.1.67.32.29c.11-.2.06-.14,0-.13a2.65,2.65,0,0,1,.17-.25c.37-.54.48-.16.48.15s-.32.73,0,.31.48.17.58-.08.15.12.25-.1.13.2.32,0,.19.1.33-.11.14,0,.32-.13.21.32.41,0,.47.11.57-.1.14.14.36.06c0,0,.29-.31.35,0s.19.46.25.27.29.09.31,0,.15.33.19.27,0,.94.24.48.52-.1.58-.23.31.31.44.07.23.18.34,0,.18-.52.24,0,.07.87.23.41.26.23.42-.08.53.15.65,0,.06.55.36.2.56-.22.58,0,.07.41.21.16.4,0,.4,0,.19.21.25.14.06.53.25.3.36.48.52.31.51.45.69,0,.22.22.38,0,.19.47.36.16.1.71.39.36.51,0,.67-.17.21.3.47-.06.31.05.35.31-.27.53,0,.25.26.1.44.12,0,.6.32.36.31.38.48.38.1-.05.17-.19c.26-.6.22-.07.35.19a.67.67,0,0,1,0,.32c0,.08,0,.09,0,0l0-.05c.06-.07.11-.08.14-.06s.13.35.25.17.28.14.42-.07.27.21.42-.1.3.19.48,0,.25.1.4-.23.33.35.48,0,.15.16.44-.3.44-.24.44-.08,0,.23.14,0,.13-.46.26,0,.06.9.29.4.61-.19.61-.07.18-.06.22-.21,0,.17.22,0,.27.11.39-.12.23.12.42-.06.4-.17.46.06,0,.52.21.16.25.11.44,0,.44-.18.48.19,0,.75.23.31.42.13.55,0,.19.29.39,0,.4.46.63-.06.4-.66.44-.36.08.44.23.13.38.23.46,0c0,0,.08-.29.19-.13s-.15.46.1.17.36-.41.4-.25.17.17.23,0,0-.18.21-.22.21.24.42-.07.19,0,.38-.31.27-.12.33-.15.3-.27.34.11.1.52.27.29.43.19.54.06.38.23.46.17,0,.83.21.42.34-.8.56-.36.3.4.45.19.79.43.79.43.1.28.29,0,.3.57.5.19.13-.5.28-.06.08,1.41.37.91.46-.26.59-.41.3.23.44,0,.14.13.4-.15.5-.24.58-.1.3.21.38.1.29.24.42,0,.12.13.37-.08.28-.18.42.19.06.54.25.21.19.16.42-.1.25.43.49.06.16.33.43.06.4.44.57,0,.31-.38.31-.38.25-.18.27-.37,0,.44.21,0,0-.69.23-.41.27.45.42.18a.37.37,0,0,1,.4-.21s.17.23.34,0,.2.12.43,0,.28,0,.4-.05a.69.69,0,0,1,.27-.06s.32-.23.34.15-.32.83,0,.37.31,0,.52-.25.25,0,.38-.16.27.06.37-.07.13.55.36.27.39.88.61.44.21-.08.35-.29.32,0,.4-.09.19.19.29,0l.36-.28s.19-.07.19.06.12.22.27,0,.27.12.44-.11.21.13.36-.08.24-.07.28.1-.14.79.26.15.21,0,.48-.12.23.58.44.3.14,1,.35.48.38,0,.61-.35.37.29.5.11,0,.52.21.35,0,.56.29.33.34.7.71.22.55-.28.69,0,.2.49.43.15.31.06.5-.08.23.16.37,0,.4.1.44.22-.27.44,0,.11.34-.21.49.14-.42.78.14.36.71-.13.86-.19.36.54.56.36.38.25.57,0,0,.29.4-.15.59-.39.71-.08.25.55.38.29.35.11.52,0,.38.28.46.13.48.52.73.33.42-.27.5,0,.11.51.42.43.4.31.55.27-.3.88.33.44.84-.23.84,0,0,.23.12.16.34.17.44.17.3.63.38.71.46.46.69,0,.31.14.61-.21.44,0,.56-.19.09.42.38.06.42.15.64-.24.49-.44.53-.24.1.52.27.07.27-.4.36-.23.14.52.25.2.46-.1.48,0,.06.38.15.21.17,0,.19.09,0,.33.16.08.25.14.36,0,0,.54.19,0,.33-.56.35-.35,0,.35.19.06.27,0,.48-.13.63.13.73,0-.19-.64.11-.16.29.64.59.18.3-.08.52-.31.33.09.45-.06.13.35.37.06.37-.73.39-.27.06.62.28.17.14.08.39-.27.54.16.69-.28.31,0,.5-.31.38-.29.4-.08.17.31.33,0,.42.19.65,0,.38.25.57-.09a5.26,5.26,0,0,0,.19-.63s.06,0,.12.08,0,0,0,.05c.21.44.25.48.38,0a1.66,1.66,0,0,1,.05-.16c.06-.15,0,.15.22-.11s.23-.06.46-.25.25-.33.35,0-.18.69.11.31.34.21.59,0,.27.17.46-.1.16.31.36-.17.31-.44.41-.15.13.32.26,0,.16.13.39-.08.23.12.48-.06.25-.54.42-.21.17.58.4.17.27-.32.42-.17.37-.06.44-.15.13.26.33,0,.29,0,.42-.14.21-.13.29.14,0,.69.3.23.35-.39.48-.15,0,.61.27.17.23,0,.5-.19a1.55,1.55,0,0,0,.46-.31c.11-.15.36-.19.36.05s.31.22.44,0,.45.22.6.08.46.18.67,0,.27-.52.5,0,.26.72.57.24.67-.06.82-.26.29.18.5,0,.25.16.38,0,.22.06.37-.13.11.25.31,0,0,.42.36.13.29.14.54,0,.26.39.42.22.1.32.38.17.13.55.37.15.15,1.11.45.18.33-.08.5-.52.27.5.41.17.07.33.32-.06.14.31.4,0,.08.25.39-.17.21-.42.43-.12-.09.91.2.44.21.06.4-.09-.32.61,0,.42.11.75.4.27.17,0,.29-.48.37.29.47,0,0,.21.24,0,.17.62.46.1.17-1.12.29-.52,0,1.19.3.56.15-.12.37-.3.26.35.43,0,.28.06.41,0,0,.64.21.26.11-1,.25-.37.21.77.38.46.18.37.42.15.15.05.21.18.11.22.2.06h0a1,1,0,0,0,.11-.25c.3-.88.36-.13.5-.59s.34-.17.34-.17-.19.59.15.09.24.25.58-.07.21.48.54.17.38-.29.48,0,0,.31.28.09.14.22.39.08.17.37.46.12.11-.46.4,0,.27.5.53,0,.35.06.35.06a.38.38,0,0,0,.29-.1c.13-.12.09.73.34.25l.25-.48.25.48c.25.48.21-.37.34-.25a.38.38,0,0,0,.29.1s.1-.58.35-.06.24.48.53,0,.1-.25.4,0,.2-.27.46-.12.15-.32.39-.08.17.18.28-.09.14-.29.48,0,.21-.48.54-.17.25-.43.58.07.15-.09.15-.09.19-.29.34.17.2-.29.5.59a1,1,0,0,0,.11.25h0c.09.16.14.06.2-.06s.11-.28.21-.18.26-.46.42-.15.23.21.38-.46,0,0,.25.37.08-.35.21-.26.25-.3.41,0,.19-.24.43,0,.12-.32.37.3.17,0,.3-.56,0,0,.29.52.27-.31.46-.1.14-.25.24,0,.34-.5.47,0,0,0,.29.48.09-.46.4-.27-.19-.57,0-.42.1-.39.4.09,0-.15.2-.44.11-.3.43.12.14-.18.39.17.15-.35.4,0,.17-.27.32.06.25-.6.41-.17.21-.39.5.52.19-.58.45-.18.1-.29.37-.15.21-.33.38-.17.16-.33.42-.22.23-.34.54,0,.15-.36.36-.13.16-.21.31,0,.25,0,.38.13.16-.22.37,0,.35-.19.5,0,.5-.21.82.26.33.24.57-.24.29-.17.5,0,.52-.13.67,0,.48-.27.6-.08.44.18.44,0,.25-.2.36-.05a1.55,1.55,0,0,0,.46.31c.27.17.23-.24.5.19s.15.09.27-.17.19-.31.48.15.21,0,.3-.23.16-.29.29-.14.21-.15.42.14.27,0,.33,0,.3.3.44.15.19-.25.42.17.23.16.4-.17.17,0,.42.21.25-.15.48.06.27-.23.39.08.15.3.26,0,.22-.33.41.15.18-.11.36.17.21-.15.46.1.29-.33.59,0,0,0,.11-.31.12-.17.35,0,.23-.06.46.25.16,0,.22.11a1.66,1.66,0,0,1,.05.16c.13.46.17.42.38,0,0,0,0,0,0-.05s.1-.12.12-.08a5.26,5.26,0,0,0,.19.63c.19.34.33-.14.57.09s.47-.29.65,0,.31.23.33,0,.21-.25.4.08.35-.12.5.31.44-.08.69.28.19-.19.39.27.26.29.28-.17.17,0,.39.27.24-.21.37-.06.24-.17.45.06.24-.15.52.31.3.3.59-.18,0,0,.11.16.52-.12.73,0,.33-.16.48.13.17.15.19-.06.19-.17.35.35.08-.14.19,0,.23-.27.36,0,.14,0,.16-.08.11-.26.19-.09.15-.21.15-.21.37-.26.48,0,.17,0,.25-.2.19-.23.36.23.23.14.27-.07.29-.16.53.24.35-.11.64.24.25-.2.38-.06.27-.16.56.19.38-.25.61.21.61.08.69,0,.27-.71.38-.71.27-.25.44-.17.12,0,.12-.16.21-.4.84,0,.18-.48.33-.44.24-.36.55-.27.33-.13.42-.43.25-.22.5,0,.65-.48.73-.33.29-.25.46-.13.4-.25.52,0,.26,0,.38-.29.27-.35.71.08.21-.06.4.15.35-.21.57,0,.41-.42.56-.36.29-.23.86.19,0,0,.14-.36.17-.47.49-.14,0,0,0-.11.29-.35.44-.22.18-.19.37,0,.28-.26.5.08.28.12.43-.15.3-.46.69,0,.43-.44.71-.22.12-.5.29-.33.08-.54.21-.35.27-.42.5-.11.39-.19.61.35.14-.74.35-.48.17-.43.44-.3.09-.53.48.12.21,0,.26-.15.14-.31.28-.1.2-.15.36.08.29-.12.44.11.27.12.27,0,.19-.06.19-.06l.36.28c.1.19.2-.1.29,0s.25-.12.4.09.14-.15.35.29.38-.71.61-.44.25-.39.36-.27.25-.15.37.07.17-.07.38.16.19-.21.52.25,0,0,0-.37.34-.15.34-.15a.69.69,0,0,1,.27.06c.12.07.16-.06.4.05s.27-.24.43,0,.34,0,.34,0a.37.37,0,0,1,.4.21c.15.27.21.08.42-.18s0,0,.23.41.19-.21.21,0,.27.37.27.37.14-.06.31.38.29-.27.57,0,.21-.44.43-.06.26-.34.49-.06.23-.24.42.1.1.16.25-.21.16-.39.42-.19.25-.1.37.08.34-.14.42,0,.29,0,.38-.1.33-.16.58.1.26-.06.4.15.32-.17.44,0,.29-.09.59.41.23-.47.37-.91.06-.31.28.06.31-.48.5-.19.29,0,.29,0,.65-.64.79-.43.21.25.45-.19.35-.06.56.36.13-.48.21-.42.35-.3.46-.17.37-.29.54-.06.23.08.27-.29.28-.13.34-.11.15-.12.33.15.17,0,.38.31.19,0,.42.07.15.06.21.22.19.17.23,0,.14,0,.4.25,0,0,.1-.17.19.13.19.13c.08.23.31-.31.46,0s.19.19.23-.13.21-.16.44.36.42-.19.63.06.27-.2.39,0,.34-.4.55,0,.19.06.23-.31.29-.33.48-.19.25-.31.44,0,.14.07.21-.16.27-.25.46-.06.29-.17.42.06.2-.08.39.12.17-.1.22,0,.22.34.22.21.38-.43.61.07.17,0,.29-.4.13-.23.26,0,.14.21.14,0,.15-.37.44.08.29-.06.44.3.33-.34.48,0,.21,0,.4.23.33-.29.48,0,.27-.11.42.1.25-.17.42.07.15-.11.25-.17.08,0,.14.06l0,.05c.08.09.07.08.05,0a.67.67,0,0,1,0-.32c.13-.26.09-.79.35-.19.07.14.12.19.17.19s.27-.55.48-.38.13-.35.32-.36.12-.38.44-.12,0,0,0-.25.11-.66.35-.31.3-.08.47.06.37-.18.67.17.22-.67.39-.36.19-.39.36-.16.18-.41.38,0,.52-.2.69,0,.33-.54.52-.31.19-.36.25-.3.25-.14.25-.14.25-.21.4,0,.18.08.21-.16.29-.4.58,0,.23-.38.36-.2.48-.26.65,0,.24-.38.42.08.16.07.23-.41.14-.13.24,0,.22-.28.34,0,.38-.19.44-.07.4-.23.58.23.2-.54.24-.48.17-.35.19-.27.24-.19.31,0,.19,0,.25-.27.35,0,.35,0c.22.08.26-.27.36-.06s.36-.21.57.1.25-.16.41,0,.18-.08.32.13.14-.13.33.11.22-.22.32,0,.14-.15.25.1.27-.34.58.08,0,0,0-.31.11-.69.48-.15a2.65,2.65,0,0,1,.17.25s-.07-.07,0,.13c.22.38.32-.29.32-.29s.18-.4.46,0,.13-.5.27-.26.34-.17.34-.17.25-.25.58.21.19,0,.36-.4,0,0,.12.21.17-.17.48-.07,0,0,.08.22.28-.13.3-.05.21-.41.29-.33.21-.4.45-.08.33-.09.41,0,.19-.24.63.37.15,0,.19-.35.23-.42.44-.4.23-.36.48-.12,0,0,.12-.52.17-.32.32-.3.18-.12.33-.08l.34.08c.06,0,.1-.18.33,0s.17-.42.4-.14.27.06.27-.13.34-.46.48-.19.17.15.46.36.23-.27.46.12.15,0,.23-.5.19,0,.34.48.13-.23.33.15.08-.4.19-.33.21-.32.36-.19.2,0,.39.29q.08.12.09.12a2.32,2.32,0,0,1-.07-.56c0-.44,0,0,.26.6s.14-.22.27-.43l0,0a1,1,0,0,0,0,.59c.12.33.27-.35.36,0s.16-.21.31.35.17.1.19,0,.22-.58.41-.1.26-.19.38.08.29-.2.46,0,.11-.23.19,0,.16-.23.5.48,0-.81.15-.48.18-.46.25-.31.27-.35.5.17,0,0,.12-.44.2-.15.36.12.23,0,.4.32.25-.15.29,0,.15-.11.34.08,0,0,.08.35.15-.31.21.13.29-.38.46.25.23-.75.29-.59.25-.37.3-.29.1-.27.29-.1,0,0,.1-.13a.15.15,0,0,0,.05-.13,1.47,1.47,0,0,0,.21.11c-.07-.08.08-.42.37.13.09.16.23-.48.3-.23a4.43,4.43,0,0,1,.39,1c.09.52.17-.58.42-.06s.23-.48.36-.11.21.15.23-.19.22-.42.35,0,.17.1.17-.25.25-.19.37.07.22-.13.34.14.21-.17.35.12.2,0,.3.32.27-.19.37.08.34-.1.48.19L334,20s0,0,.07.12c.15.25.57-.3.69,0s.2-.54.3-.31.39-.27.59.17.22.12.31-.17.08-.27.27-.15.23-.06.4.15.25-.13.45,0,.13-.38.3-.15.31-.38.48-.21.13-.27.23,0,.25-.39.31-.29.38-.33.61,0,.19-.73.34-.5.27-.23.41,0,.28-.06.4.29-.06-1,0-.83.31-.36.49-.09.16-.37.18-.23a1.64,1.64,0,0,0,.31.48s-.19-1.12.18-.6.14-.12.16-.6.29-.24.48.08.27-.3.44,0,.21-.27.44.18.25-.18.31.19.17.33.24-.21.22.38.31.74.33-.2.48.16.08-.14.25-.16.19.8.19.8l.35.11v.31c0,.13.24-.31.24-.31v.35s.22-.35.35-.2.23-.3.34,0,.22-.09.22,0,.24.06.45.62.31-.62.39-.27.44-.1.59.21.15-.12.25.12.21-.12.33.15.22-.27.32-.1a3.43,3.43,0,0,1,.5.69c.29.54.13-.74.33-.36s.15-.27.34.08.19-.37.44,0,.17-.08.34.15.08-.4.24-.11.13-.29.28-.1,0,0,.29.62.15-.54.38-.14.06-.56.2-.17.21-.6.34-.19.11-.39.25.09.14-.38.25.08,0,0,.11.54.23.13.39.48.28-.45.38-.33.25-.46.35-.36.22,0,.36.21.15-.08.31.23.18-.08.26.17.22-.21.52.08,0,0,.31.71.19-.69.36-.4.17-.33.31-.1.09-.46.28-.21.37-.17.5.07.1-.4.46.14,0,0,.14.4.24-.69.36-.46.31-.42.38-.27.08-.53.25-.07.2-.22.52,0,0,0,.07.19.26-.12.35,0,.15.15.19.27.33-.27.33-.27l0,.13c0,.12.19-.19.19-.19l.17.17c.06.08.17,0,.35.24s.07-.18.28.22.18-.34.18-.34.17-.4.28-.29.08-.59.31-.29.25-.19.4,0,.11-.32.17-.34.16.34.16.34.08-.42.32,0,.21-.5.37-.3.17-.26.36.15.17-.46.23-.44a.48.48,0,0,1,.33.29c.11.26.15-.29.15-.29a2.54,2.54,0,0,1,.25.29c.08.13.25-.2.3,0s.18-.18.27,0,.21,0,.27.26.21-.26.21-.26.16.07.35.44,0-.31,0-.42a4,4,0,0,1,.35.72c0,.14.18-.74.18-.74s.22-.5.39-.2.16-.44.16-.44.25.18.25,0,.32-.52.32-.52a3.81,3.81,0,0,1,.5.6.24.24,0,0,0,.46,0c0-.27.06-.27.56.32s.34-.26.76.26.41-.48.84,0,.29-.35.54,0,.29-.43.63,0,.16-.89.54-.43.37-.55.75-.21.29-.12.63.64.25-.22.67,0,.17-.26.37,0,0-.72.51-.72,0,0,.12.08.34-.34.63,0-.17.38,0,.88.3-.67.59-.28.25-.39.42-.39.46-.13.59,0,.28-.21.41-.13.42-.2.75.48.55-.48,1.22.44.33-.7.71-.12.21-.75.41-.32.13-.89.67,0c0,0,.3-.68.51-.39s.34-.13.58.39.25-.31.43,0,.28-.18.33,0a2.35,2.35,0,0,0,.34.65c.08.13.41-.5.79-.41s0,0,.25.5.29-.09.42,0,.37-.21.5,0,.16-.38.33.12.21-.42.5.46.51-.38.89,0,.25-.67.49-.34.22-.41.43-.16.29-.25.71-.25,0,0,.46.87.16-.91.29-.41.3-.42,1,.5a2,2,0,0,0,.31.38,2.77,2.77,0,0,1-.27-1c0-.62.33-.58.5-.16s.5-.17.8,0,.5-.38.66.12.46-.34.71,0,.34-.17.55,0,.29-.08.46,0,.41-.16.67,0,.29,0,.54.92.25-.83.38-.54.08-.92.29-.81.13-.81.33-.15.3-1.16.67-1,0-.51,0-.51.3-.74.55-.51.42-.27.67,0,0,.1,0,.41.46-.18.46-.18l.13.13c.12.12.33,0,.33,0v-15Z"/></g></g></svg>